<?xml version="1.0" encoding="UTF-8"?>
<svg xmlns="http://www.w3.org/2000/svg" xmlns:xlink="http://www.w3.org/1999/xlink" width="48px" height="48px" viewBox="0 0 48 48" version="1.1">
<g id="surface1">
<path style=" stroke:none;fill-rule:nonzero;fill:rgb(96.078431%,65.882353%,0%);fill-opacity:1;" d="M 25.367188 26.175781 C 23.402344 28.144531 23.402344 31.332031 25.367188 33.300781 C 27.335938 35.269531 30.527344 35.269531 32.496094 33.300781 C 34.464844 31.332031 34.464844 28.144531 32.496094 26.175781 C 30.527344 24.207031 27.335938 24.207031 25.367188 26.175781 Z M 30.695312 31.507812 C 30.226562 31.972656 29.59375 32.238281 28.929688 32.238281 C 28.269531 32.238281 27.632812 31.972656 27.167969 31.507812 C 26.191406 30.53125 26.191406 28.953125 27.167969 27.976562 C 27.632812 27.511719 28.269531 27.246094 28.929688 27.246094 C 29.59375 27.246094 30.226562 27.511719 30.695312 27.976562 C 31.667969 28.949219 31.667969 30.53125 30.695312 31.507812 Z M 32.410156 1.378906 L 29.324219 4.464844 C 28.71875 5.074219 28.71875 6.058594 29.324219 6.667969 L 41.378906 18.722656 C 41.988281 19.328125 42.972656 19.328125 43.582031 18.722656 L 46.667969 15.636719 C 47.273438 15.03125 47.273438 14.039062 46.667969 13.433594 L 34.609375 1.375 C 34 0.773438 33.019531 0.773438 32.410156 1.375 Z M 10.777344 40.835938 C 11.324219 40.285156 11.324219 39.394531 10.777344 38.84375 L 9.207031 37.273438 C 8.65625 36.726562 7.765625 36.726562 7.214844 37.273438 L 3.972656 40.519531 L 3.96875 40.523438 L 3.078125 39.632812 C 2.585938 39.140625 1.785156 39.140625 1.296875 39.632812 C 0.804688 40.125 0.804688 40.925781 1.296875 41.414062 L 6.640625 46.753906 C 6.875 46.988281 7.195312 47.121094 7.53125 47.121094 C 7.863281 47.121094 8.183594 46.988281 8.417969 46.753906 C 8.90625 46.261719 8.914062 45.460938 8.417969 44.972656 L 7.527344 44.082031 L 7.535156 44.078125 Z M 10.777344 40.835938 "/>
<path style=" stroke:none;fill-rule:nonzero;fill:rgb(25.882353%,36.078431%,78.039216%);fill-opacity:1;" d="M 27.113281 10.242188 L 20.25 17.101562 C 19.640625 17.710938 19.640625 18.714844 20.25 19.324219 L 24.488281 23.558594 C 27.480469 21.402344 31.679688 21.671875 34.375 24.367188 L 37.804688 20.933594 C 38.414062 20.324219 38.414062 19.324219 37.804688 18.714844 L 29.332031 10.242188 C 29.039062 9.949219 28.640625 9.78125 28.222656 9.78125 C 27.804688 9.78125 27.40625 9.949219 27.113281 10.242188 Z M 22.707031 25.34375 L 20.203125 22.84375 C 19.617188 22.257812 18.65625 22.257812 18.074219 22.84375 L 9.25 31.667969 C 8.664062 32.261719 8.664062 33.210938 9.25 33.800781 L 14.25 38.800781 C 14.839844 39.386719 15.789062 39.386719 16.382812 38.800781 L 22.054688 33.117188 C 20.855469 30.640625 21.070312 27.644531 22.707031 25.34375 Z M 22.707031 25.34375 "/>
</g>
</svg>
